<?xml version="1.0" encoding="UTF-8"?>
<svg id="Layer_1" data-name="Layer 1" xmlns="http://www.w3.org/2000/svg" viewBox="0 0 5000 2916">
  <defs>
    <style>
      .cls-1 {
        fill: #fff;
      }
    </style>
  </defs>
  <rect class="cls-1" y="101.76" width="5000" height="2814.24"/>
  <path d="M4737.62,2822.63h-1.74c-69.6-88.16-137.86-178.4-205.88-268.34-224.5-296.84-446.53-590.43-706.57-794.8-599.57-471.22-1401.55-467.91-2902.41,1063.14h-1.9c1502.19-1532.7,2304.94-1535.92,2905.18-1064.17,260.17,204.48,482.26,498.13,706.81,795.05,68.22,90.21,136.68,180.72,206.5,269.12"/>
  <path d="M4796.75,2822.63h-1.8c-88.81-103.09-175.84-210.13-262.77-317.04-241.27-296.75-481.77-592.54-757.43-800.22-646.49-487.04-1486.83-489.2-2985.19,1117.26h-1.86c1499.61-1608.1,2340.72-1605.86,2987.89-1118.3,275.81,207.78,516.35,503.63,757.67,800.44,87.16,107.2,174.42,214.53,263.48,317.87Z"/>
  <path d="M4866.37,2822.63h-1.86c-109.36-116.71-216.71-240.1-324.29-363.77-259.46-298.25-520.32-598.11-814.2-809.67-695.46-500.65-1576.25-506.51-3061.88,1173.44h-1.83c1486.81-1681.6,2368.37-1675.67,3064.53-1174.51,294.01,211.65,554.92,511.57,814.44,809.88,107.85,123.97,215.45,247.67,325.09,364.63Z"/>
  <path d="M4946.6,2822.63h-1.93c-130.85-128.74-259.89-267.96-389.83-408.18-279.59-301.69-563.44-607.98-878.84-824.18-746.13-511.45-1669.2-518.33-3131.03,1232.36h-1.77C2006.11,1070.31,2929.96,1077.26,3676.8,1589.19c315.51,216.27,599.41,522.62,879.06,824.37,130.24,140.54,259.57,280.08,390.73,409.07Z"/>
  <path d="M5000,2788.32v1.85c-140.83-130.26-281.09-272.91-423.12-417.38-302.28-307.45-612.62-623.11-953.7-844.84C2825.16,1009.18,1858.5,1004.93,432.33,2822.63h-1.73C1857.76,1003.3,2825.22,1007.6,3623.95,1526.84c341.21,221.82,651.61,537.53,953.93,845.03,141.7,144.13,281.63,286.45,422.12,416.45Z"/>
  <path d="M5000,2701.95v1.82c-129.46-116.04-259.95-241.65-392.62-369.36-328.13-315.87-669.57-644.55-1041.61-872.86C2715.23,939.6,1704.47,942.64,326.47,2822.63h-1.69C1703.69,941.02,2715.25,938.03,3566.52,1460.42c372.16,228.38,713.65,557.12,1041.84,873.04,132.33,127.39,262.5,252.69,391.64,368.49Z"/>
  <path d="M5000,2615.35v1.8c-115.4-100.38-232.73-207.69-352.36-317.13-357.82-327.3-736.33-673.52-1145.87-909.49C2598.76,870.21,1544.56,886.13,227.71,2822.63h-1.65C1543.73,884.54,2598.73,868.65,3502.49,1389.39c409.67,236.05,788.24,582.32,1146.11,909.67,119.31,109.13,236.31,216.16,351.41,316.29Z"/>
  <path d="M5000,2528.55v1.77c-98.11-82.91-198.34-170.39-300.71-259.73-391.89-342.03-815.11-711.39-1270.28-956.1C2474.34,801.25,1378.89,836.45,136.37,2822.63h-1.61C1378.02,834.89,2474.27,799.69,3429.68,1313.33c455.3,244.78,878.58,614.19,1270.53,956.27,102.05,89.06,201.97,176.27,299.79,258.94Z"/>
  <path d="M5000,2441.55v1.75c-76.83-63.15-155.38-128.84-235.56-195.9-430.7-360.23-908.42-759.79-1419.22-1014.11C2340.68,733.16,1208.04,794.99,53.05,2822.63h-1.58C1207.11,793.43,2340.56,731.59,3345.85,1232.1c510.94,254.38,988.73,654,1419.5,1014.29,79.86,66.8,158.11,132.24,234.66,195.16Z"/>
  <path d="M5000,2354.37v1.73c-50.46-40.38-101.83-81.75-154.06-123.82-474.13-381.9-1019.03-820.81-1597.81-1085.26C2203.77,669.84,1048.93,760.96,0,2779.91v-3C1049.08,759.34,2204.11,668.52,3248.72,1145.82c578.94,264.53,1123.92,703.5,1598.11,1085.45,51.92,41.82,102.99,82.95,153.17,123.11Z"/>
  <path d="M5000,2267.03v1.72c-17.27-13.47-34.68-27.05-52.2-40.72-521.14-406.62-1149.96-897.25-1812.2-1171.87C2074.6,616.17,927.7,731.02,0,2634.16v-3.13C927.92,729.42,2074.95,614.86,3136.15,1054.93c662.41,274.69,1291.31,765.38,1812.52,1172.06,17.23,13.44,34.34,26.79,51.33,40.04Z"/>
  <path d="M5000,2179.53v1.7c-557.52-423.97-1262.28-948.07-1994.36-1219.76C1937.92,565.2,812.04,706.14,0,2477.76v-3.26C812.35,704.55,1938.29,563.91,3006.14,960.22c731.91,271.64,1436.41,795.4,1993.86,1219.31Z"/>
  <path d="M5000,2091.9v1.69c-588.03-436.5-1358.13-973.3-2143.36-1229.44C1794.51,517.69,704.66,685.09,0,2308.84v-3.44C705.07,683.48,1794.92,516.42,2857.07,862.88c785.08,256.08,1554.93,792.58,2142.93,1229.02Z"/>
  <path d="M5000,2004.15v1.67c-680.68-493.58-1628.19-1107.68-2547.54-1297.39C1492.11,510.27,562.55,775.49,0,2125.04v-3.55C562.99,773.8,1492.47,508.98,2452.74,707.12c919.24,189.68,1866.53,803.46,2547.26,1297.02Z"/>
  <path d="M5000,1916.27v1.66c-693.71-491.75-1686.85-1095.12-2633.08-1277.71C1410.8,455.71,502.66,701.01,0,1925.5v-3.57C503.2,699.34,1411.22,454.43,2367.2,638.9c946.09,182.57,1939.02,785.64,2632.8,1277.36Z"/>
  <path d="M5000,1828.27v1.65c-704.87-488.79-1740.54-1079.65-2711.64-1256.66-378.61-69.01-747.39-75.11-1082.89,12.29-335.47,87.39-637.67,268.28-883.17,573.24C199.77,1310.99,91.37,1494.11,0,1711.93v-3.54c91.15-216.6,199.17-398.84,321.2-550.42,245.7-305.2,548.16-486.24,883.9-573.71,335.71-87.45,704.7-81.36,1083.51-12.31,970.97,176.98,2006.41,767.57,2711.39,1256.32Z"/>
  <path d="M5000,1740.16v1.63c-751.71-510.24-1902.85-1122.46-2939.03-1258.23-355.41-46.57-697.29-37.08-1004.86,51.82-307.53,88.89-580.77,257.18-798.96,528.2C159.88,1184.42,73.55,1325.68,0,1489.42v-3.37c73.32-162.65,159.28-303.07,256.06-423.29,218.37-271.26,491.85-439.69,799.66-528.66,307.76-88.95,649.83-98.45,1005.43-51.86,1036.07,135.76,2186.99,747.7,2938.85,1257.92Z"/>
  <path d="M5000,1651.94v1.62c-546.27-363.17-1315.02-773.15-2096.9-1024.66-584.23-187.93-1175.76-287.38-1687.22-212.69C704.52,490.88,273.19,739.64,9.24,1248.11c-3.11,5.99-6.18,12.02-9.24,18.07v-3.04c2.65-5.23,5.32-10.45,8.01-15.63C272.19,738.6,703.88,489.63,1215.67,414.89c511.69-74.72,1103.44,24.76,1687.86,212.75,781.64,251.43,1550.16,661.2,2096.47,1024.3Z"/>
  <path d="M5000,1563.65v1.6c-583.91-380.43-1434.49-806.74-2282.95-1046.99-577.67-163.57-1154.33-240.88-1645.08-158.72C619.39,435.32,239.87,646.76,0,1051.28v-2.68C240.16,645,619.51,433.95,1071.74,358.23c490.98-82.2,1067.84-4.87,1645.7,158.75,848.22,240.18,1698.57,666.3,2282.56,1046.66Z"/>
  <path d="M5000,1475.26v1.6c-622.69-397.8-1562.07-839.58-2477.85-1065.05-568.18-139.89-1127.23-196.5-1595.83-107.66C541.55,377.1,217.79,548.16,0,851.68v-2.35C217.99,546.49,541.6,375.73,926.06,302.84c468.82-88.88,1028.08-32.25,1596.44,107.68,915.55,225.41,1854.69,667,2477.5,1064.74Z"/>
  <path d="M5000,1386.8v1.59c-661.89-414.82-1696-870.58-2678.14-1077.91-556.21-117.42-1095.72-155.16-1541.42-60.67C463.67,316.97,194.31,450.98,0,670.64v-2.06C194.43,449.39,463.65,315.61,780.15,248.51c445.9-94.55,985.61-56.8,1542,60.66,981.92,207.29,2015.79,662.85,2677.85,1077.63Z"/>
  <path d="M1056.35,2822.63c1495.41-1456.13,2261.95-1465.81,2817.56-1011.51,246.56,201.61,451.56,494.52,660.33,792.83,51.08,72.99,102.39,146.3,154.59,218.68h-1.69c-52.02-72.14-103.15-145.2-154.05-217.94-208.72-298.24-413.66-591.08-660.07-792.56-554.95-453.76-1320.72-443.99-2814.73,1010.5h-1.94Z"/>
</svg>